<?xml version="1.0" encoding="utf-8"?>
<!-- Generator: Adobe Illustrator 18.1.1, SVG Export Plug-In . SVG Version: 6.00 Build 0)  -->
<svg version="1.1" id="umich-engin-logo" xmlns="http://www.w3.org/2000/svg" xmlns:xlink="http://www.w3.org/1999/xlink" x="0px"
	 y="0px" viewBox="-128 379.9 354.9 35.1" enable-background="new -128 379.9 354.9 35.1" xml:space="preserve">
<g id="mich-engin">
	<path id="m" fill="#FFFFFF" d="M-57.8,382.7L-57.8,382.7l6,19.3h2.6l6.1-19.3h0.1V402h2.8v-21.7h-4.6l-5.5,18.2h-0.1l-5.5-18.2
		h-4.5V402h2.6L-57.8,382.7L-57.8,382.7z"/>
	<path id="ich" fill="#FFFFFF" d="M-36.4,380.3h2.8V402h-2.8V380.3z M-17.4,386.3c0.3-4.2-1.4-6.4-5.7-6.4c-4.3,0-7,1.7-7,7.9v6.1
		c0,8.4,4.1,8.6,6.8,8.6c1.4,0,6.2,0,6.1-6.8h-2.9c0,4.2-2.6,4.5-3.4,4.5c-2.1,0-3.9-0.6-3.9-5.9v-5.8c0-3.7,0.5-4.3,0.6-4.5
		c0.1-0.3,1-1.7,3.3-1.7c0.6,0,1.9,0.2,2.4,0.9c0.6,0.7,0.7,1.9,0.6,3.1C-20.3,386.3-17.4,386.3-17.4,386.3z M-11.5,402v-9.9h7.6
		v9.9h2.8v-21.7h-2.8v9.4h-7.6v-9.4h-2.8V402H-11.5z"/>
	<path id="igan-eng" fill="#FFFFFF" d="M2.9,380.3h2.8V402H2.9V380.3z M22.8,386.1c0.2-4.5-2-6.2-6.7-6.2c-4.6,0-6.8,2.8-6.8,7.1
		v7.1c0,6,2.2,8.4,6.8,8.4c2.8,0,4.9-0.7,6.6-1.6v-10.5h-6.8v2.4h4v6.5c-0.6,0.4-1.9,1-3.9,1c-2.6,0-4-1.2-4-5.9v-7.3
		c0-4.5,3.1-4.7,4-4.7c2.8,0,3.8,1.4,3.8,3.9C19.9,386.1,22.8,386.1,22.8,386.1z M24.5,402h2.8l1.6-5.2h8.4l1.6,5.2h3.1l-7.1-21.7
		h-3.5L24.5,402L24.5,402z M36.5,394.4h-6.9l3.4-11.5H33L36.5,394.4z M56,380.3v18.5h-0.1l-8.4-18.5h-3.9V402h2.5v-18.8h0.1
		l8.6,18.8h3.8v-21.7C58.5,380.3,56,380.3,56,380.3z M81.8,402v-2.4h-8.6v-7.5H81v-2.4h-7.8v-7h8.4v-2.4H70.4V402H81.8z M96.6,380.3
		v18.5h-0.1l-8.4-18.5h-3.9V402h2.5v-18.8h0.1l8.6,18.8h3.8v-21.7H96.6L96.6,380.3z M116,386.1c0.2-4.5-2-6.2-6.7-6.2
		c-4.6,0-6.8,2.8-6.8,7.1v7.1c0,6,2.2,8.4,6.8,8.4c2.8,0,4.9-0.7,6.6-1.6v-10.5h-6.7v2.4h4v6.5c-0.6,0.4-1.9,1-3.9,1
		c-2.6,0-4-1.2-4-5.9v-7.3c0-4.5,3.1-4.7,4-4.7c2.8,0,3.8,1.4,3.8,3.9H116L116,386.1z"/>
	<path id="ineer" fill="#FFFFFF" d="M120.1,380.3h2.8V402h-2.8V380.3z M139.3,380.3v18.5h-0.1l-8.4-18.5h-3.9V402h2.5v-18.8h0.1
		l8.5,18.8h3.8v-21.7H139.3L139.3,380.3z M156.7,402v-2.4h-8.6v-7.5h7.8v-2.4h-7.8v-7h8.4v-2.4h-11.2V402H156.7z M170.4,402v-2.4
		h-8.6v-7.5h7.8v-2.4h-7.8v-7h8.4v-2.4H159V402H170.4z M175.4,382.7h4.2c2.1,0,2.9,1.7,2.9,3.3c0,1.9-1,3.6-2.9,3.6h-4.1
		L175.4,382.7L175.4,382.7z M178.6,392c0.9,0,3.1,0.1,3.3,2.8c0.2,2.9,0.1,5.7,0.8,7.2h2.9c-0.4-1.4-0.7-4.7-0.7-5.7
		c-0.2-4.4-1-5.2-3.5-5.6v-0.1c2.5-0.4,4-2.4,4-4.9c0-2.7-1.4-5.4-5.2-5.4h-7.5V402h2.8v-10L178.6,392L178.6,392z"/>
	<path id="ing" fill="#FFFFFF" d="M188.4,380.3h2.8V402h-2.8V380.3z M207.5,380.3v18.5h-0.1l-8.4-18.5h-3.9V402h2.5v-18.8h0.1
		l8.5,18.8h3.8v-21.7H207.5L207.5,380.3z M226.9,386.1c0.2-4.5-2-6.2-6.7-6.2c-4.6,0-6.8,2.8-6.8,7.1v7.1c0,6,2.2,8.4,6.8,8.4
		c2.8,0,4.9-0.7,6.6-1.6v-10.5h-6.7v2.4h4v6.5c-0.6,0.4-1.9,1-3.9,1c-2.6,0-4-1.2-4-5.9v-7.3c0-4.5,3.1-4.7,4-4.7
		c2.8,0,3.8,1.4,3.8,3.9H226.9L226.9,386.1z"/>
</g>
<g>
	<path id="block-m" fill="#FFCF01" d="M-103.8,408.8l-9.9-13.6v9.9h3.9v9.7H-128v-9.7h3.7v-15.2h-3.7v-9.7h14.3l9.9,13.7l9.9-13.7
		h14.3v9.7h-3.7v15.2h3.7v9.7h-18.3v-9.7h3.9v-9.9C-93.8,395.2-103.8,408.8-103.8,408.8z"/>
	<path id="umich" fill="#FFFFFF" d="M77.3,414.8v-0.4c0.5,0,0.9-0.1,0.9-0.5c0-0.1,0-0.3-0.1-0.4l-0.2-0.7h-2.6l-0.2,0.6
		c0,0.2-0.1,0.3-0.1,0.5c0,0.5,0.5,0.6,1,0.6v0.4h-3v-0.4c0.8,0,1-0.2,1.3-1l2-5.4l-0.1-0.2c0.9-0.3,1.1-0.4,1.5-0.7l0.3,1.1l1.6,5
		c0.3,0.9,0.4,1.1,1.2,1.2v0.4L77.3,414.8C77.3,414.8,77.3,414.8,77.3,414.8z M76.6,408.9l-1.1,3h2.1L76.6,408.9L76.6,408.9z
		 M51.1,413.2c-0.3,0.5-1.1,1.8-3.1,1.8c-2.2,0-3.6-1.6-3.6-3.8c0-2,1.2-3.9,3.7-3.9c1.3,0,2,0.5,2.4,0.9l0.5-0.5l0,2.2l-0.3,0.1
		c-0.1-0.4-0.3-0.8-0.8-1.3c-0.2-0.2-0.8-0.7-1.5-0.7c-1.3,0-2.4,1.1-2.4,3c0,1.6,0.9,3.1,2.6,3.1c1.3,0,1.8-0.7,2.1-1.3L51.1,413.2
		L51.1,413.2z M52.3,414.8v-0.4c0.8-0.1,0.8-0.2,0.8-1c0-0.3,0-0.5,0-0.8v-3.1c0-0.5,0-1,0-1.2c0-0.4-0.2-0.5-0.8-0.6v-0.4h3.1v0.4
		c-0.6,0.1-0.8,0.1-0.9,0.5c-0.1,0.2-0.1,0.8-0.1,1.2v1c0.6,0,1.1,0.1,1.7,0.1c0.6,0,1.1,0,1.7-0.1v-1.2c0-1.3,0-1.4-1-1.5v-0.4h3.2
		v0.4c-0.9,0.1-0.9,0.1-0.9,1.5v3.1c0,0.3,0,1.2,0,1.4c0.1,0.4,0.3,0.5,0.8,0.5v0.4h-3.2v-0.4c0.7-0.1,0.9-0.1,1-0.6
		c0-0.2,0-0.5,0-1v-1.3c-0.6,0-1.1-0.1-1.7-0.1c-0.6,0-1.1,0-1.8,0.1v1.3c0,1.5,0,1.5,1,1.6v0.4L52.3,414.8L52.3,414.8L52.3,414.8z
		 M61.4,414.8v-0.4c0.7-0.1,0.9-0.2,0.9-0.9v-3.9c0-1.5,0-1.6-0.9-1.7v-0.4h3.1v0.4c-0.9,0.1-0.9,0.1-0.9,1.7v3c0,0.3,0,1.1,0,1.3
		c0,0.4,0.3,0.6,0.8,0.6v0.4H61.4L61.4,414.8z M40.5,414.8v-0.4c0.7-0.1,0.9-0.2,0.9-0.9v-3.9c0-1.5,0-1.6-0.9-1.7v-0.4h3v0.4
		c-0.9,0.1-0.9,0.1-0.9,1.7v3c0,0.3,0,1.1,0,1.3c0.1,0.4,0.3,0.6,0.8,0.6v0.4H40.5L40.5,414.8z M35.8,414.8v-0.4
		c0.9-0.1,0.9-0.1,0.9-1.5v-3.7l-2.6,5.6h-0.6l-2.4-5.7l-0.1,4.3c0,0.7,0.1,0.9,0.9,0.9v0.4h-2.5v-0.4c0.6,0,0.8-0.1,0.9-0.6
		c0-0.2,0.1-0.8,0.1-1.2l0.1-3.1c0-0.2,0-0.6,0-0.9c0-0.7-0.1-0.8-0.8-0.8v-0.4H32l2.3,5.6l2.5-5.6h2.2v0.4
		c-0.9,0.1-0.9,0.1-0.9,1.3v3c0,0.5,0,1.1,0,1.5c0,0.5,0.2,0.6,0.8,0.7v0.4L35.8,414.8C35.8,414.8,35.8,414.8,35.8,414.8z
		 M81.2,414.8v-0.4c0.6,0,0.8,0,0.9-0.5c0.1-0.5,0.1-4.8,0.1-5.6c-0.4-0.4-0.6-0.4-1.1-0.5v-0.4h2.2c0.6,0.9,0.7,1.1,1.8,2.4l2,2.5
		v-3.3c0-1.2,0-1.2-1.2-1.3v-0.4H89v0.4c-0.8,0-0.9,0.2-0.9,1.4l-0.1,5.7h-0.4l-0.7-0.8c-0.3-0.4-0.7-0.8-1-1.2l-2.9-3.6v3.8
		c0,1.2,0.1,1.2,1.2,1.3v0.4L81.2,414.8L81.2,414.8z M20,411.1c0,2.5-1.7,3.9-3.7,3.9c-2.1,0-3.8-1.5-3.8-3.9c0-2,1.3-3.8,3.7-3.8
		C18.4,407.3,20,408.9,20,411.1z M16.3,414.3c0.4,0,1-0.2,1.5-0.9c0.5-0.8,0.6-1.5,0.6-2.5c0-0.9-0.3-1.8-0.8-2.3
		c-0.2-0.2-0.7-0.6-1.3-0.6c-0.6,0-1.1,0.4-1.3,0.6c-0.5,0.6-0.8,1.4-0.8,2.4c0,1,0.1,1.7,0.7,2.5C15.3,414.1,15.9,414.3,16.3,414.3
		L16.3,414.3z M20.7,414.4v0.4h3v-0.4c-0.8-0.1-0.9-0.1-0.9-0.9l0-2.1h0.8c0.8,0,1.3,0.1,1.3,0.9h0.4v-2.4H25c0,0.8-0.3,0.9-1.2,0.9
		h-1v-2.5c0.3,0,0.4,0,0.9,0c1.4,0,1.9,0,2.1,1.1h0.4l-0.1-1.8h-5.4v0.4c0.5,0.1,0.8,0.1,0.8,0.4c0,0.2,0.1,1,0.1,1.3v2.6
		c0,0.2,0,1.1,0,1.3C21.6,414.3,21.5,414.3,20.7,414.4L20.7,414.4z M-42.4,414.8v-0.4c0.7-0.1,0.9-0.2,0.9-0.9v-3.9
		c0-1.5,0-1.6-0.9-1.7v-0.4h3v0.4c-0.9,0.1-0.9,0.1-0.9,1.7v3c0,0.3,0,1.1,0,1.3c0,0.4,0.3,0.6,0.8,0.6v0.4L-42.4,414.8
		C-42.4,414.8-42.4,414.8-42.4,414.8z M-10.1,414.8v-0.4c0.7-0.1,0.9-0.2,0.9-0.9v-3.9c0-1.5,0-1.6-0.9-1.7v-0.4h3v0.4
		c-0.9,0.1-0.9,0.1-0.9,1.7v3c0,0.3,0,1.1,0,1.3c0,0.4,0.3,0.6,0.8,0.6v0.4L-10.1,414.8C-10.1,414.8-10.1,414.8-10.1,414.8z
		 M-51.3,414.8v-0.4c0.6,0,0.8,0,0.9-0.5c0.1-0.5,0.1-4.8,0.1-5.6c-0.4-0.4-0.6-0.4-1.1-0.5v-0.4h2.2c0.6,0.9,0.7,1.1,1.8,2.4
		l2.1,2.5v-3.3c0-1.2,0-1.2-1.2-1.3v-0.4h2.9v0.4c-0.8,0-0.9,0.2-0.9,1.4l-0.1,5.7H-45l-0.7-0.8c-0.3-0.4-0.7-0.8-1-1.2l-2.9-3.6
		v3.8c0,1.2,0.1,1.2,1.2,1.3v0.4L-51.3,414.8C-51.3,414.8-51.3,414.8-51.3,414.8z M-16.1,412.5l0.4,0c0.4,1.2,1.1,1.8,2.2,1.8
		c0.8,0,1.5-0.3,1.5-1.1c0-0.8-0.8-1.2-1.2-1.3l-0.9-0.3c-0.6-0.2-1.7-0.7-1.7-2.1c0-1.4,1.1-2.1,2.3-2.1c0.5,0,1.1,0.1,1.7,0.5
		l0.4-0.3l0.2,2.2l-0.4,0.1c-0.1-0.5-0.2-0.7-0.5-1.1c-0.4-0.5-0.8-0.7-1.4-0.7c-0.8,0-1.2,0.4-1.2,1c0,0.9,0.9,1.2,1.7,1.4
		c0.4,0.1,0.8,0.3,1.1,0.4c0.6,0.3,1.1,1,1.1,1.9c0,1.3-1,2.3-2.6,2.3c-1,0-1.6-0.4-1.9-0.6l-0.6-0.4L-16.1,412.5L-16.1,412.5z
		 M-4.1,414.8v-0.3c0.7,0,0.9-0.3,0.9-0.8v-5.4h-0.9c-0.8,0-1.4,0-1.4,1.3h-0.4l0.1-2.1h6.7l0.1,2.1H0.5c-0.1-1.3-0.6-1.3-1.4-1.3
		h-0.9v5.4c0,0.6,0.2,0.8,0.9,0.8v0.3H-4.1z M-56.9,407.4v0.4c-1,0.1-1,0.1-1,1.7v1.7c0,0.9,0,1.7,0.5,2.4c0.4,0.5,1,0.6,1.3,0.6
		c1.1,0,1.6-0.5,1.9-1.4c0.2-0.7,0.2-2,0.2-2.8c0-0.3,0-1.1,0-1.4c0-0.7-0.4-0.7-1-0.7v-0.4h2.8v0.4c-0.7,0-0.8,0.1-0.9,0.9
		c0,0.2-0.1,2.2-0.1,2.5c0,0.6-0.1,1.1-0.2,1.6c-0.5,2-2.4,2.1-2.9,2.1c-0.4,0-1.2-0.1-1.9-0.5c-1.1-0.7-1.1-1.8-1.1-3v-1.7
		c0-0.8,0-1.1,0-1.3c-0.1-0.5-0.3-0.5-0.8-0.6v-0.4L-56.9,407.4L-56.9,407.4L-56.9,407.4z M-30.9,407.4v0.4
		c-0.7,0.1-0.8,0.3-1.4,1.8l-2.2,5.3H-35l-2-5.4c-0.5-1.4-0.6-1.6-1.3-1.7v-0.4h3.5v0.4c-0.6,0-1,0-1,0.5c0,0.2,0.1,0.4,0.3,1
		l1.3,3.7l1.5-3.9c0.1-0.3,0.2-0.6,0.2-0.8c0-0.5-0.5-0.6-1-0.6v-0.4C-33.5,407.4-30.9,407.4-30.9,407.4z M3.9,414.8v-0.4
		c0.6-0.1,0.8-0.1,0.9-0.2C5,414,5,413.8,5,413v-1.3l-1.9-3c-0.5-0.8-0.5-0.8-1.2-0.9v-0.4h3.8v0.4c-0.8,0-1.1,0-1.1,0.4
		c0,0.2,0.1,0.4,0.3,0.7l1.1,1.8l1-1.8c0.2-0.4,0.3-0.6,0.3-0.8c0-0.4-0.3-0.4-0.8-0.4v-0.4h2.9v0.4c-0.7,0-1,0.2-1.8,1.6l-1.1,1.9
		v1.5c0,1.3,0,1.4,1.1,1.5v0.4L3.9,414.8L3.9,414.8L3.9,414.8z M-24.6,414.8c0-0.5,0.1-1.4,0.2-1.9h-0.4c-0.3,1.3-1,1.2-2.1,1.2
		c-1,0-1.2-0.3-1.2-0.7v-2.1h0.8c0.9,0,1.2,0.1,1.2,0.9h0.4v-2.4h-0.4c-0.1,0.7-0.2,0.9-1.2,0.9H-28v-2.6h0.9c1.2,0,1.7,0.1,1.9,1.1
		h0.3l0-1.7h-5.2v0.4c0.5,0.1,0.8,0.1,0.8,0.4c0.1,0.2,0.1,1,0.1,1.3v2.6c0,0.2,0,1.1,0,1.3c0,0.8-0.1,0.9-0.9,0.9v0.4
		C-30.2,414.8-24.6,414.8-24.6,414.8z M72.6,411.6v0.4c-0.7,0-0.7,0.2-0.7,1.6v0.6c-0.6,0.4-1.4,0.9-2.8,0.9c-2.5,0-3.7-1.9-3.7-3.8
		c0-2.3,1.6-3.9,3.6-3.9c1.2,0,2,0.5,2.6,0.8l0.4-0.4l0.1,2.3l-0.3,0.1c-0.2-0.4-0.4-0.9-0.9-1.5c-0.2-0.2-0.7-0.5-1.5-0.5
		c-1.3,0-2.3,1.1-2.3,3.2c0,1.7,0.8,3.1,2.3,3.1c0.8,0,1.2-0.6,1.3-0.6c0.1-0.2,0.2-0.4,0.1-0.7c0-0.9-0.2-1-1-1v-0.4
		C69.6,411.6,72.6,411.6,72.6,411.6z M-21.2,410.8c0.2,0,0.5,0.1,0.7,0.1c0.8,0,1.5-0.7,1.5-1.2c0-0.9-0.4-1.6-1.7-1.6
		c-0.2,0-0.3,0-0.4,0L-21.2,410.8L-21.2,410.8z M-21.2,412.4c0,1.7,0,1.9,0.9,1.9v0.4h-3.1v-0.4c0.8-0.1,0.9-0.2,0.9-1
		c0-0.3,0-0.6,0-0.9v-2.7c0-0.9,0-1.2,0-1.4c-0.1-0.4-0.3-0.5-0.9-0.5v-0.4l3.3,0c1.8,0,2.4,0.9,2.4,1.9c0,0.7-0.4,1.6-1.4,1.9
		l1.3,2.3c0.5,0.9,0.7,1.1,1.3,1.1v0.2c-0.2,0-0.3,0-0.5,0c-1.4,0-2-0.5-2.5-1.7l-0.4-0.9c-0.4-0.9-0.6-0.9-1.3-0.9L-21.2,412.4
		L-21.2,412.4L-21.2,412.4z"/>
</g>
<path id="vert-rule" fill="none" stroke="#FFFFFF" stroke-width="0.747" stroke-miterlimit="10" d="M-70,380.4v34.3"/>
</svg>
